<?xml version="1.0" standalone="no"?>
<!DOCTYPE svg PUBLIC "-//W3C//DTD SVG 20010904//EN"
 "http://www.w3.org/TR/2001/REC-SVG-20010904/DTD/svg10.dtd">
<svg version="1.0" xmlns="http://www.w3.org/2000/svg"
 width="120.000000pt" height="120.000000pt" viewBox="0 0 120.000000 120.000000"
 preserveAspectRatio="xMidYMid meet">
<metadata>
Created by potrace 1.11, written by Peter Selinger 2001-2013
</metadata>
<g transform="translate(0.000000,120.000000) scale(0.100000,-0.100000)"
fill="#000000" stroke="none">
<path d="M69 1113 c-36 -26 -48 -39 -59 -68 -6 -16 -10 -190 -10 -448 0 -472
0 -471 71 -509 31 -17 68 -18 529 -18 461 0 498 1 530 18 70 37 70 37 70 512
0 476 0 474 -71 512 -32 17 -67 18 -535 18 -451 -1 -503 -2 -525 -17z m1056
-47 c29 -23 30 -27 33 -120 l4 -96 -561 0 -561 0 0 89 c0 84 1 90 29 120 l29
31 499 0 498 0 30 -24z m35 -575 l0 -320 -24 -28 -24 -28 -511 0 -510 0 -23
23 c-23 22 -23 24 -26 347 l-3 325 561 0 560 0 0 -319z"/>
<path d="M102 1018 c-6 -7 -13 -25 -17 -40 -16 -63 82 -94 115 -35 13 24 13
30 0 55 -12 20 -24 28 -51 30 -21 2 -40 -3 -47 -10z m66 -45 c5 -17 -26 -29
-40 -15 -6 6 -7 15 -3 22 9 14 37 9 43 -7z"/>
<path d="M304 1022 c-33 -22 -34 -83 -1 -104 40 -25 97 6 97 54 0 44 -60 75
-96 50z m54 -55 c2 -11 -3 -17 -16 -17 -20 0 -36 23 -24 34 11 12 37 1 40 -17z"/>
<path d="M487 1012 c-22 -24 -22 -65 1 -85 62 -56 141 23 85 86 -21 22 -65 22
-86 -1z m63 -42 c0 -13 -7 -20 -20 -20 -13 0 -20 7 -20 20 0 13 7 20 20 20 13
0 20 -7 20 -20z"/>
<path d="M622 687 c-5 -7 -17 -48 -26 -92 -8 -44 -26 -130 -39 -192 -14 -62
-22 -115 -19 -118 3 -3 11 -5 18 -5 13 0 22 19 29 62 3 13 16 79 31 148 14 69
28 136 30 150 3 14 6 30 9 37 5 16 -21 24 -33 10z"/>
<path d="M434 591 c-16 -14 -48 -42 -71 -61 -31 -28 -39 -40 -32 -52 12 -21
133 -118 148 -118 27 0 5 39 -44 80 -30 24 -55 47 -55 50 1 3 25 25 55 49 30
24 55 49 55 56 0 24 -26 23 -56 -4z"/>
<path d="M713 604 c-4 -12 10 -30 51 -67 l58 -50 -49 -43 c-26 -24 -51 -44
-55 -44 -5 0 -8 -9 -8 -21 0 -13 5 -19 14 -17 26 5 146 111 145 127 0 9 -27
39 -61 66 -79 66 -87 70 -95 49z"/>
</g>
</svg>
